<?xml version="1.0" encoding="utf-8"?>
<!-- Generator: Adobe Illustrator 17.0.0, SVG Export Plug-In . SVG Version: 6.00 Build 0)  -->
<!DOCTYPE svg PUBLIC "-//W3C//DTD SVG 1.1//EN" "http://www.w3.org/Graphics/SVG/1.1/DTD/svg11.dtd">
<svg version="1.1" xmlns="http://www.w3.org/2000/svg" xmlns:xlink="http://www.w3.org/1999/xlink" x="0px" y="0px" width="32px"
	 height="32px" viewBox="0 0 32 32" enable-background="new 0 0 32 32" xml:space="preserve">
<g id="Calque_1" display="none">
	<g display="inline">
		<path fill="#FF0000" d="M32,27c0,2.761-2.239,5-5,5H5c-2.761,0-5-2.239-5-5V5c0-2.761,2.239-5,5-5h22c2.761,0,5,2.239,5,5V27z"/>
		<g>
			<path fill="#FFFFFF" d="M28.989,17.766l1.459-1.103l-1.687,0.161c-0.024-0.072-0.05-0.144-0.077-0.216l0.842-0.658l-1.113,0.052
				c-0.05-0.096-0.102-0.191-0.157-0.285l0.886-1.53c0,0-1.218,0.577-1.463,0.71c-0.798-0.959-1.898-1.706-3.173-2.128
				c-0.152-0.328-0.315-0.646-0.487-0.954l0.386-0.095l-0.656-0.368c-0.047-0.077-0.094-0.153-0.143-0.229l1.268,0.175
				c0,0-0.645-0.255-1.033-0.379c0.093-0.029,0.185-0.07,0.275-0.125c0.601-0.372,0.984-0.956,1.186-1.628
				c0.208-0.693,0.157-1.498,0.188-2.216c0.014-0.312,0.027-0.766,0.143-1.052c0.113-0.28,0.437-0.416,0.424-0.758
				c-0.153,0.121-0.312,0.228-0.518,0.208c0.221-0.423,0.615-0.741,0.875-1.136c-0.497,0.175-1.041,0.404-1.448,0.776
				c0.007-0.135-0.023-0.289-0.015-0.424c-0.86,0.775-2.071,1.059-3.136,1.314c-0.744,0.179-1.653,0.325-2.169,0.983
				c-0.058,0.074-0.105,0.2-0.135,0.349c-0.287-0.151-0.581-0.286-0.88-0.403c0.351-0.309,1.038-0.911,1.06-0.927
				c0.023-0.017-1.226,0.306-1.788,0.444l0.085-0.953l-0.76,0.959l-0.514-1.363c0,0-0.448,0.906-0.638,1.287
				c-0.057-0.003-0.114-0.005-0.172-0.007l-0.777-0.684l0.197,0.69c-0.112,0.005-0.223,0.013-0.333,0.022l-3.085-0.403l1.474,0.713
				c-0.587,0.177-1.156,0.419-1.701,0.722c-0.028-0.19-0.082-0.356-0.152-0.446c-0.516-0.658-1.425-0.805-2.169-0.983
				C8.292,5.622,7.081,5.339,6.221,4.564c0.008,0.135-0.022,0.289-0.015,0.424C5.798,4.615,5.255,4.386,4.757,4.211
				c0.26,0.395,0.654,0.713,0.874,1.136C5.426,5.367,5.267,5.26,5.114,5.139C5.101,5.481,5.425,5.618,5.538,5.898
				c0.116,0.287,0.129,0.74,0.143,1.052c0.031,0.718-0.02,1.523,0.188,2.216c0.202,0.672,0.585,1.256,1.186,1.628
				c0.17,0.106,0.348,0.157,0.527,0.179c-0.393,0.073-1.024,0.217-1.024,0.217h1.154l0.123-0.204c0.005,0,0.01,0,0.015,0
				c-0.044,0.067-0.087,0.135-0.13,0.203H7.712l-0.063,0.105l0.009-0.004c-0.317,0.515-0.607,1.06-0.866,1.633
				c-0.951,0.38-1.788,0.944-2.456,1.643l0.019-0.04l-1.55-0.131l0.899,0.945c-0.025,0.036-0.05,0.073-0.074,0.11l-2.077-0.72
				l1.641,1.501c-0.046,0.1-0.089,0.201-0.13,0.303l-1.486-0.149l1.244,0.911c-0.102,0.424-0.156,0.863-0.156,1.314
				c0,1.858,0.91,3.525,2.353,4.666H4.212l1.539,0.464l0.002,0.001L5.1,24.081l1.188,0.021c0.107,0.073,0.214,0.147,0.322,0.22
				L6.245,24.84l0.667-0.315c0.048,0.032,0.096,0.065,0.144,0.097c0.088,0.041,0.175,0.083,0.263,0.122
				c0.62,0.276,1.257,0.516,1.905,0.722l-0.917,1.531c0,0,1.159-0.748,1.918-1.242c0.155,0.04,0.309,0.079,0.465,0.116
				c-0.227,0.708-0.586,1.86-0.586,1.86l2.832-1.452c0.15,0.018,0.299,0.032,0.449,0.044c-0.344,0.498-0.889,1.274-1.042,1.435
				c0.346-0.217,2.88-1.535,3.522-1.868c0.065-0.023,0.13-0.04,0.197-0.05c0.423,0.226,3.464,1.847,3.464,1.798
				c0-0.044-1.441-1.254-1.918-1.653c0.054-0.007,0.107-0.015,0.161-0.024l2.479,0.82c0,0-0.388-0.735-0.608-1.111
				c0.065-0.011,0.131-0.022,0.196-0.034c0.859,0.439,3.041,1.518,3.041,1.518l-1.554-1.824c0.778-0.182,1.552-0.376,2.314-0.617
				c0.213-0.067,0.425-0.136,0.636-0.208l0.269,0.231l-0.065-0.301c0.008-0.003,0.016-0.005,0.024-0.008
				c0.087-0.03,0.174-0.061,0.261-0.091c0.337,0.134,0.805,0.321,0.787,0.312c-0.017-0.009-0.316-0.237-0.533-0.403
				c0.025-0.009,0.049-0.018,0.075-0.026c0.031-0.011,0.063-0.021,0.095-0.032c0.647,0.187,1.868,0.539,1.897,0.549
				c0.037,0.012-1.094-0.699-1.33-0.831c1.979-1.098,3.298-3.058,3.298-5.294c0-0.287-0.022-0.57-0.065-0.848L28.989,17.766z
				 M17.254,6.4l-0.006-0.016l0.184,0.054C17.373,6.425,17.314,6.412,17.254,6.4z M23.553,10.977l-0.005,0.054
				c-0.011-0.017-0.021-0.034-0.032-0.05C23.528,10.979,23.541,10.978,23.553,10.977z"/>
			<polygon fill="#FFFFFF" points="7.358,11.776 7.649,11.295 6.993,11.609 			"/>
		</g>
		<text transform="matrix(1 0 0 1 7.6479 20.9824)" display="none"><tspan x="0" y="0" display="inline" fill="#EA663A" font-family="'Comfortaa'" font-size="9.0422">25</tspan><tspan x="10.243" y="0" display="inline" fill="#EA663A" font-family="'Comfortaa'" font-size="6.0281">Go</tspan></text>
		<g>
			<path fill="#990000" d="M21.278,14.012c-1.267,0-2.46,0.488-3.365,1.376c-0.012,0.01-0.025,0.021-0.036,0.033l-1.857,1.862
				l-0.001-0.001l-1.509,1.512l0.001,0.001l-0.208,0.209l-1.625,1.628c-0.009,0.008-0.019,0.017-0.028,0.026
				c-0.506,0.505-1.176,0.783-1.889,0.783c-1.46,0-2.658-1.187-2.673-2.646c0.015-1.459,1.214-2.646,2.673-2.646
				c0.713,0,1.383,0.278,1.889,0.783c0.009,0.009,0.019,0.018,0.028,0.026l1.408,1.411l1.509-1.512l-1.432-1.435
				c-0.011-0.012-0.024-0.023-0.036-0.033c-0.905-0.888-2.098-1.376-3.365-1.376c-2.635,0-4.793,2.144-4.809,4.78
				c0.017,2.642,2.174,4.786,4.809,4.786c1.267,0,2.46-0.488,3.366-1.376c0.012-0.01,0.024-0.021,0.036-0.033l1.858-1.862l0,0
				l1.509-1.512l0,0l0.208-0.209l1.625-1.628c0.01-0.008,0.019-0.017,0.028-0.026c0.506-0.505,1.177-0.783,1.889-0.783
				c1.46,0,2.658,1.187,2.673,2.646c-0.015,1.46-1.213,2.646-2.673,2.646c-0.712,0-1.383-0.278-1.889-0.783
				c-0.009-0.009-0.018-0.018-0.028-0.026l-1.409-1.412l-1.509,1.512l1.433,1.436c0.012,0.012,0.024,0.023,0.036,0.033
				c0.905,0.888,2.099,1.376,3.365,1.376c2.635,0,4.793-2.144,4.81-4.779C26.071,16.157,23.913,14.012,21.278,14.012z"/>
			<path fill="#FF0000" d="M21.278,13.709c-1.267,0-2.46,0.488-3.365,1.376c-0.012,0.01-0.025,0.021-0.036,0.033l-1.857,1.862
				l-0.001-0.001l-1.509,1.512l0.001,0.001L14.302,18.7l-1.625,1.628c-0.009,0.008-0.019,0.017-0.028,0.026
				c-0.506,0.505-1.176,0.783-1.889,0.783c-1.46,0-2.658-1.187-2.673-2.646c0.015-1.46,1.214-2.646,2.673-2.646
				c0.713,0,1.383,0.278,1.889,0.783c0.009,0.009,0.019,0.018,0.028,0.026l1.408,1.411l1.509-1.512l-1.432-1.435
				c-0.011-0.011-0.024-0.023-0.036-0.033c-0.905-0.888-2.098-1.376-3.365-1.376c-2.635,0-4.793,2.144-4.809,4.78
				c0.017,2.642,2.174,4.786,4.809,4.786c1.267,0,2.46-0.488,3.366-1.376c0.012-0.01,0.024-0.021,0.036-0.033l1.858-1.862l0,0
				l1.509-1.512l0,0l0.208-0.209l1.625-1.628c0.01-0.008,0.019-0.017,0.028-0.026c0.506-0.505,1.177-0.783,1.889-0.783
				c1.46,0,2.658,1.187,2.673,2.646c-0.015,1.46-1.213,2.646-2.673,2.646c-0.712,0-1.383-0.278-1.889-0.783
				c-0.009-0.009-0.018-0.018-0.028-0.026l-1.409-1.412l-1.509,1.512l1.433,1.436c0.012,0.012,0.024,0.023,0.036,0.033
				c0.905,0.888,2.099,1.376,3.365,1.376c2.635,0,4.793-2.144,4.81-4.78C26.071,15.853,23.913,13.709,21.278,13.709z"/>
		</g>
	</g>
</g>
<g id="Calque_3" display="none">
</g>
<g id="Calque_2">
	<g display="none">
		<path display="inline" fill="#F29D17" d="M31.989,26.992c0,2.759-2.237,4.996-4.996,4.996H5.008c-2.759,0-4.996-2.237-4.996-4.996
			V5.008c0-2.759,2.237-4.996,4.996-4.996h21.984c2.759,0,4.996,2.237,4.996,4.996V26.992z"/>
		<g display="inline">
			<path fill="#FFFFFF" d="M28.98,17.765l1.458-1.102l-1.686,0.161c-0.024-0.072-0.05-0.144-0.077-0.216l0.841-0.657l-1.112,0.052
				c-0.05-0.096-0.102-0.191-0.157-0.284l0.885-1.529c0,0-1.217,0.577-1.461,0.71c-0.798-0.958-1.896-1.705-3.171-2.127
				c-0.152-0.327-0.315-0.645-0.487-0.954l0.385-0.095l-0.656-0.368c-0.047-0.077-0.094-0.153-0.142-0.229l1.268,0.175
				c0,0-0.644-0.255-1.032-0.379c0.093-0.029,0.185-0.07,0.274-0.125c0.6-0.372,0.984-0.955,1.185-1.627
				c0.208-0.692,0.157-1.497,0.188-2.214c0.014-0.311,0.027-0.765,0.143-1.051c0.113-0.28,0.437-0.416,0.424-0.758
				c-0.153,0.12-0.312,0.228-0.517,0.208c0.22-0.423,0.614-0.74,0.874-1.135c-0.497,0.174-1.04,0.403-1.447,0.776
				c0.007-0.135-0.023-0.288-0.015-0.424c-0.86,0.774-2.07,1.058-3.134,1.313c-0.743,0.179-1.652,0.325-2.168,0.983
				c-0.058,0.074-0.105,0.2-0.135,0.349c-0.287-0.151-0.581-0.285-0.88-0.403c0.351-0.308,1.037-0.911,1.059-0.927
				c0.023-0.017-1.225,0.306-1.787,0.444l0.085-0.952l-0.759,0.958l-0.513-1.362c0,0-0.448,0.905-0.638,1.286
				c-0.057-0.003-0.114-0.005-0.172-0.007l-0.777-0.684l0.197,0.689c-0.112,0.005-0.223,0.013-0.333,0.022l-3.083-0.402l1.473,0.712
				c-0.587,0.177-1.155,0.419-1.7,0.722c-0.028-0.19-0.082-0.356-0.152-0.445c-0.516-0.658-1.424-0.804-2.168-0.983
				C8.298,5.63,7.088,5.346,6.228,4.572C6.236,4.707,6.205,4.86,6.213,4.995C5.805,4.623,5.262,4.394,4.765,4.22
				c0.259,0.395,0.653,0.713,0.874,1.135c-0.205,0.02-0.364-0.087-0.517-0.208C5.109,5.489,5.432,5.625,5.545,5.905
				c0.116,0.286,0.129,0.74,0.143,1.051c0.031,0.717-0.02,1.522,0.188,2.214c0.202,0.672,0.585,1.255,1.185,1.627
				c0.17,0.105,0.348,0.157,0.526,0.179c-0.393,0.073-1.023,0.217-1.023,0.217h1.154l0.123-0.203c0.005,0,0.01,0,0.015,0
				c-0.044,0.067-0.087,0.135-0.13,0.203H7.718l-0.063,0.105l0.009-0.004c-0.317,0.514-0.606,1.06-0.865,1.632
				c-0.95,0.38-1.787,0.944-2.455,1.642l0.019-0.04l-1.549-0.131l0.899,0.944c-0.025,0.036-0.05,0.073-0.074,0.11l-2.076-0.719
				l1.64,1.5c-0.046,0.1-0.089,0.201-0.13,0.303l-1.484-0.149l1.243,0.911C2.729,17.72,2.675,18.16,2.675,18.61
				c0,1.857,0.909,3.523,2.351,4.663H4.221l1.538,0.464l0.002,0.001l-0.652,0.337l1.187,0.021c0.107,0.073,0.214,0.146,0.322,0.22
				l-0.365,0.518l0.666-0.315c0.048,0.032,0.096,0.065,0.144,0.097c0.087,0.041,0.175,0.083,0.263,0.122
				c0.619,0.276,1.256,0.516,1.904,0.722l-0.917,1.53c0,0,1.158-0.748,1.917-1.241c0.155,0.04,0.309,0.079,0.465,0.116
				c-0.226,0.707-0.585,1.859-0.585,1.859l2.83-1.451c0.15,0.018,0.299,0.032,0.449,0.044c-0.344,0.497-0.888,1.273-1.041,1.434
				c0.346-0.217,2.878-1.534,3.52-1.867c0.065-0.023,0.13-0.04,0.197-0.05c0.423,0.226,3.462,1.846,3.462,1.797
				c0-0.044-1.44-1.253-1.916-1.652c0.054-0.007,0.107-0.015,0.161-0.024l2.478,0.819c0,0-0.388-0.735-0.608-1.11
				c0.065-0.011,0.131-0.022,0.196-0.033c0.859,0.438,3.039,1.517,3.039,1.517l-1.553-1.823c0.778-0.182,1.55-0.376,2.312-0.617
				c0.212-0.067,0.424-0.136,0.636-0.207l0.269,0.231l-0.065-0.301c0.008-0.003,0.016-0.005,0.024-0.008
				c0.087-0.03,0.174-0.061,0.26-0.091c0.337,0.134,0.804,0.321,0.787,0.312c-0.017-0.009-0.316-0.237-0.533-0.403
				c0.025-0.009,0.049-0.018,0.075-0.026c0.031-0.011,0.063-0.021,0.095-0.032c0.647,0.187,1.866,0.538,1.896,0.548
				c0.037,0.012-1.093-0.699-1.329-0.83c1.978-1.097,3.296-3.056,3.296-5.291c0-0.287-0.022-0.57-0.065-0.847L28.98,17.765z
				 M17.253,6.407l-0.006-0.016l0.184,0.054C17.372,6.432,17.313,6.419,17.253,6.407z M23.548,10.98l-0.005,0.054
				c-0.011-0.017-0.021-0.034-0.032-0.05C23.523,10.983,23.535,10.982,23.548,10.98z"/>
			<path fill="#FFFFFF" d="M12.307,27.78c0.005,0.001,0.019-0.01,0.039-0.03C12.316,27.768,12.302,27.779,12.307,27.78z"/>
			<polygon fill="#FFFFFF" points="7.364,11.779 7.655,11.298 6.999,11.612 			"/>
		</g>
		<text transform="matrix(1 0 0 1 11.4664 20.9799)" display="inline"><tspan x="0" y="0" fill="#F29D17" font-family="'Comfortaa'" font-size="9.0357">1</tspan><tspan x="2.471" y="0" fill="#F29D17" font-family="'Comfortaa'" font-size="6.0281">To</tspan></text>
	</g>
	<g display="none">
		<g display="inline">
			<path fill="#F29D17" d="M31.973,26.993c0,2.759-2.237,4.996-4.996,4.996H4.996C2.237,31.989,0,29.752,0,26.993V5.011
				c0-2.759,2.237-4.996,4.996-4.996h21.981c2.759,0,4.996,2.237,4.996,4.996V26.993z"/>
			<g>
				<path fill="#FFFFFF" d="M28.965,17.767l1.458-1.102l-1.685,0.161c-0.024-0.072-0.05-0.144-0.077-0.216l0.841-0.657l-1.112,0.052
					c-0.05-0.096-0.102-0.191-0.157-0.284l0.885-1.528c0,0-1.217,0.577-1.461,0.71c-0.798-0.958-1.896-1.704-3.17-2.126
					c-0.152-0.327-0.315-0.645-0.487-0.954l0.385-0.095l-0.655-0.368c-0.047-0.077-0.094-0.153-0.142-0.229l1.267,0.175
					c0,0-0.644-0.255-1.032-0.379c0.093-0.029,0.185-0.07,0.274-0.125c0.6-0.372,0.984-0.955,1.185-1.626
					c0.208-0.692,0.157-1.497,0.188-2.214c0.014-0.311,0.027-0.765,0.143-1.051c0.113-0.28,0.437-0.416,0.423-0.758
					c-0.153,0.12-0.312,0.228-0.517,0.208c0.22-0.422,0.614-0.74,0.874-1.135c-0.497,0.174-1.04,0.403-1.447,0.776
					c0.007-0.135-0.023-0.288-0.015-0.424c-0.86,0.774-2.07,1.058-3.133,1.313c-0.743,0.179-1.651,0.325-2.167,0.982
					c-0.058,0.074-0.105,0.2-0.135,0.349c-0.287-0.151-0.58-0.285-0.88-0.402c0.351-0.308,1.037-0.911,1.059-0.926
					c0.023-0.017-1.225,0.306-1.786,0.444l0.085-0.952L17.213,6.34L16.7,4.979c0,0-0.447,0.905-0.638,1.286
					c-0.057-0.003-0.114-0.005-0.172-0.007l-0.777-0.684l0.197,0.689c-0.112,0.005-0.223,0.013-0.333,0.022l-3.082-0.402
					l1.473,0.712c-0.587,0.177-1.155,0.419-1.699,0.722c-0.028-0.19-0.082-0.356-0.152-0.445C11,6.213,10.092,6.067,9.349,5.889
					C8.285,5.633,7.075,5.35,6.216,4.575C6.224,4.711,6.193,4.864,6.2,4.999C5.793,4.627,5.25,4.398,4.753,4.223
					c0.259,0.395,0.653,0.713,0.874,1.135C5.422,5.378,5.262,5.271,5.11,5.151C5.097,5.492,5.42,5.629,5.533,5.908
					c0.116,0.286,0.129,0.74,0.143,1.051c0.031,0.717-0.02,1.521,0.188,2.214c0.202,0.672,0.585,1.254,1.185,1.626
					c0.17,0.105,0.348,0.157,0.526,0.179c-0.392,0.073-1.023,0.217-1.023,0.217h1.153l0.123-0.203c0.005,0,0.01,0,0.015,0
					c-0.044,0.067-0.087,0.135-0.13,0.203H7.705l-0.063,0.105l0.009-0.004c-0.317,0.514-0.606,1.059-0.865,1.632
					c-0.95,0.38-1.787,0.944-2.454,1.642l0.019-0.04l-1.549-0.131L3.7,15.344c-0.025,0.036-0.05,0.073-0.074,0.11L1.55,14.735
					l1.64,1.5c-0.046,0.1-0.089,0.201-0.13,0.303l-1.484-0.149l1.243,0.911c-0.102,0.423-0.156,0.863-0.156,1.313
					c0,1.856,0.909,3.522,2.351,4.663H4.209l1.538,0.464l0.002,0.001l-0.652,0.337l1.187,0.021c0.107,0.073,0.214,0.146,0.322,0.219
					L6.24,24.834l0.666-0.314c0.048,0.032,0.096,0.065,0.144,0.097c0.087,0.041,0.175,0.083,0.263,0.122
					c0.619,0.276,1.256,0.516,1.903,0.722L8.3,26.99c0,0,1.158-0.748,1.916-1.241c0.155,0.04,0.309,0.079,0.464,0.116
					c-0.226,0.707-0.585,1.859-0.585,1.859l2.83-1.451c0.15,0.018,0.299,0.032,0.449,0.044c-0.344,0.497-0.888,1.273-1.041,1.433
					c0.346-0.217,2.878-1.533,3.519-1.866c0.065-0.023,0.13-0.04,0.197-0.05c0.423,0.226,3.461,1.846,3.461,1.796
					c0-0.044-1.44-1.253-1.916-1.651c0.054-0.007,0.107-0.015,0.161-0.024l2.477,0.819c0,0-0.388-0.734-0.608-1.11
					c0.065-0.011,0.131-0.022,0.196-0.033c0.859,0.438,3.039,1.517,3.039,1.517l-1.552-1.823c0.777-0.181,1.55-0.376,2.312-0.617
					c0.212-0.067,0.424-0.136,0.636-0.207l0.269,0.231l-0.065-0.301c0.008-0.003,0.016-0.005,0.024-0.008
					c0.087-0.03,0.174-0.06,0.26-0.091c0.337,0.134,0.804,0.321,0.787,0.312c-0.017-0.009-0.316-0.237-0.533-0.402
					c0.025-0.009,0.049-0.018,0.075-0.026c0.031-0.011,0.063-0.021,0.095-0.032c0.647,0.187,1.866,0.538,1.896,0.548
					c0.037,0.012-1.093-0.699-1.329-0.83c1.978-1.097,3.295-3.056,3.295-5.29c0-0.287-0.022-0.57-0.065-0.847L28.965,17.767z
					 M17.239,6.41l-0.006-0.016l0.184,0.054C17.358,6.436,17.299,6.422,17.239,6.41z M23.533,10.983l-0.005,0.054
					c-0.011-0.017-0.021-0.034-0.032-0.05C23.508,10.986,23.521,10.984,23.533,10.983z"/>
				<path fill="#FFFFFF" d="M12.294,27.781c0.005,0.001,0.019-0.01,0.039-0.03C12.303,27.769,12.289,27.78,12.294,27.781z"/>
				<polygon fill="#FFFFFF" points="7.352,11.782 7.642,11.301 6.987,11.615 				"/>
			</g>
		</g>
		<text transform="matrix(1 0 0 1 6.448 20.9778)" display="inline"><tspan x="0" y="0" fill="#F29D17" font-family="'Comfortaa'" font-size="9.0345">100</tspan><tspan x="12.352" y="0" fill="#F29D17" font-family="'Comfortaa'" font-size="6.023">Go</tspan></text>
	</g>
	<g display="none">
		<g display="inline">
			<path fill="#F29D17" d="M32,27.05c0,2.761-2.239,5-5,5H5c-2.761,0-5-2.239-5-5v-22c0-2.761,2.239-5,5-5h22c2.761,0,5,2.239,5,5
				V27.05z"/>
			<g>
				<path fill="#FFFFFF" d="M28.989,17.816l1.459-1.103l-1.687,0.161c-0.024-0.072-0.05-0.144-0.077-0.216l0.842-0.658l-1.113,0.052
					c-0.05-0.096-0.102-0.191-0.157-0.285l0.886-1.53c0,0-1.218,0.577-1.463,0.71c-0.798-0.959-1.898-1.706-3.173-2.128
					c-0.152-0.328-0.315-0.646-0.487-0.954l0.386-0.095l-0.656-0.368c-0.047-0.077-0.094-0.153-0.143-0.229l1.268,0.175
					c0,0-0.645-0.255-1.033-0.379c0.093-0.029,0.185-0.07,0.275-0.125c0.601-0.372,0.984-0.956,1.186-1.628
					C25.512,8.522,25.46,7.717,25.492,7c0.014-0.312,0.027-0.766,0.143-1.052c0.113-0.28,0.437-0.416,0.424-0.758
					c-0.153,0.121-0.312,0.228-0.518,0.208c0.221-0.423,0.615-0.741,0.875-1.136c-0.497,0.174-1.041,0.404-1.448,0.776
					c0.007-0.135-0.023-0.289-0.015-0.424c-0.86,0.775-2.071,1.059-3.136,1.314c-0.744,0.179-1.653,0.325-2.169,0.983
					c-0.058,0.074-0.105,0.2-0.135,0.349c-0.287-0.151-0.581-0.286-0.88-0.403c0.351-0.309,1.038-0.911,1.06-0.927
					c0.023-0.017-1.226,0.306-1.788,0.444l0.085-0.953l-0.76,0.959l-0.514-1.363c0,0-0.448,0.906-0.638,1.287
					c-0.057-0.003-0.114-0.005-0.172-0.007l-0.777-0.684l0.197,0.69c-0.112,0.005-0.223,0.013-0.333,0.022l-3.085-0.403l1.474,0.713
					c-0.587,0.177-1.156,0.419-1.701,0.722C11.65,7.166,11.596,7,11.526,6.911c-0.516-0.658-1.425-0.805-2.169-0.983
					C8.292,5.672,7.081,5.388,6.221,4.613c0.008,0.135-0.022,0.289-0.015,0.424C5.798,4.665,5.255,4.435,4.757,4.261
					c0.26,0.395,0.654,0.713,0.874,1.136C5.426,5.417,5.267,5.31,5.114,5.189C5.101,5.531,5.425,5.668,5.538,5.948
					C5.653,6.234,5.667,6.688,5.681,7c0.031,0.718-0.02,1.523,0.188,2.216c0.202,0.672,0.585,1.256,1.186,1.628
					c0.17,0.106,0.348,0.157,0.527,0.179c-0.393,0.073-1.024,0.217-1.024,0.217h1.154l0.123-0.204c0.005,0,0.01,0,0.015,0
					c-0.044,0.067-0.087,0.135-0.13,0.203H7.712l-0.063,0.105l0.009-0.004c-0.317,0.515-0.607,1.06-0.866,1.633
					c-0.951,0.38-1.788,0.944-2.456,1.643l0.019-0.04l-1.55-0.131l0.899,0.945c-0.025,0.036-0.05,0.073-0.074,0.11l-2.077-0.72
					l1.641,1.501c-0.046,0.1-0.089,0.201-0.13,0.303l-1.486-0.149l1.244,0.911c-0.102,0.424-0.156,0.863-0.156,1.314
					c0,1.858,0.91,3.525,2.353,4.666H4.212l1.539,0.464c0,0,0.001,0.001,0.002,0.001L5.1,24.131l1.188,0.021
					c0.107,0.073,0.214,0.147,0.322,0.22l-0.365,0.518l0.667-0.315c0.048,0.032,0.096,0.065,0.144,0.097
					c0.088,0.041,0.175,0.083,0.263,0.122c0.62,0.276,1.257,0.516,1.905,0.722l-0.917,1.531c0,0,1.159-0.748,1.918-1.242
					c0.155,0.04,0.309,0.079,0.465,0.116c-0.227,0.708-0.586,1.86-0.586,1.86l2.832-1.452c0.15,0.018,0.299,0.032,0.449,0.044
					c-0.344,0.498-0.889,1.274-1.042,1.435c0.346-0.217,2.88-1.535,3.522-1.868c0.065-0.023,0.13-0.04,0.197-0.05
					c0.423,0.226,3.464,1.847,3.464,1.798c0-0.044-1.441-1.254-1.918-1.653c0.054-0.007,0.107-0.015,0.161-0.024l2.479,0.82
					c0,0-0.388-0.735-0.608-1.111c0.065-0.011,0.131-0.022,0.196-0.034c0.859,0.439,3.041,1.518,3.041,1.518l-1.554-1.824
					c0.778-0.182,1.552-0.376,2.314-0.617c0.213-0.067,0.425-0.136,0.636-0.208l0.269,0.231l-0.065-0.301
					c0.008-0.003,0.016-0.005,0.024-0.008c0.087-0.03,0.174-0.061,0.261-0.091c0.337,0.134,0.805,0.321,0.787,0.312
					c-0.017-0.009-0.316-0.237-0.533-0.403c0.025-0.009,0.049-0.018,0.075-0.026c0.031-0.011,0.063-0.021,0.095-0.032
					c0.647,0.187,1.868,0.539,1.897,0.549c0.037,0.012-1.094-0.699-1.33-0.831c1.979-1.098,3.298-3.058,3.298-5.294
					c0-0.287-0.022-0.57-0.065-0.848L28.989,17.816z M17.254,6.45l-0.006-0.016l0.184,0.054C17.373,6.475,17.314,6.462,17.254,6.45z
					 M23.553,11.026l-0.005,0.054c-0.011-0.017-0.021-0.034-0.032-0.05C23.528,11.029,23.541,11.028,23.553,11.026z"/>
				<path fill="#FFFFFF" d="M12.305,27.839c0.005,0.001,0.019-0.01,0.039-0.031C12.314,27.827,12.3,27.837,12.305,27.839z"/>
				<polygon fill="#FFFFFF" points="7.358,11.826 7.649,11.344 6.993,11.659 				"/>
			</g>
		</g>
		<text transform="matrix(1 0 0 1 4.7231 21.0293)" display="inline"><tspan x="0" y="0" fill="#F29D17" font-family="'Comfortaa'" font-size="9.0422">200</tspan><tspan x="14.834" y="0" fill="#F29D17" font-family="'Comfortaa'" font-size="6.0281">Go</tspan></text>
	</g>
	<g display="none">
		<g display="inline">
			<path fill="#F29D17" d="M31.971,26.995c0,2.758-2.236,4.994-4.994,4.994H5.005c-2.758,0-4.994-2.236-4.994-4.994V5.023
				c0-2.758,2.236-4.994,4.994-4.994h21.972c2.758,0,4.994,2.236,4.994,4.994V26.995z"/>
			<g>
				<path fill="#FFFFFF" d="M28.964,17.773l1.457-1.102l-1.685,0.161c-0.024-0.072-0.049-0.144-0.077-0.216l0.841-0.657
					l-1.112,0.052c-0.05-0.096-0.102-0.191-0.157-0.284l0.885-1.528c0,0-1.216,0.576-1.461,0.71
					c-0.797-0.958-1.895-1.704-3.169-2.126c-0.152-0.327-0.315-0.645-0.486-0.953l0.385-0.095l-0.655-0.368
					c-0.047-0.077-0.094-0.153-0.142-0.229l1.267,0.175c0,0-0.644-0.255-1.031-0.379c0.093-0.029,0.185-0.07,0.274-0.125
					c0.6-0.372,0.983-0.954,1.185-1.626c0.208-0.692,0.157-1.496,0.188-2.213c0.014-0.311,0.027-0.765,0.143-1.051
					c0.113-0.28,0.436-0.416,0.423-0.758c-0.153,0.12-0.312,0.227-0.517,0.208c0.22-0.422,0.614-0.74,0.873-1.135
					c-0.497,0.174-1.039,0.403-1.447,0.775c0.007-0.135-0.023-0.288-0.015-0.423c-0.859,0.774-2.069,1.057-3.132,1.313
					c-0.743,0.179-1.651,0.325-2.166,0.982c-0.058,0.074-0.104,0.2-0.135,0.348c-0.287-0.151-0.58-0.285-0.879-0.402
					c0.351-0.308,1.036-0.91,1.058-0.926c0.023-0.017-1.225,0.306-1.786,0.444l0.084-0.952l-0.759,0.957L16.704,4.99
					c0,0-0.447,0.905-0.637,1.286c-0.057-0.003-0.114-0.005-0.172-0.007l-0.776-0.683l0.197,0.689
					c-0.112,0.005-0.222,0.013-0.333,0.022l-3.081-0.402l1.472,0.712c-0.587,0.176-1.154,0.419-1.699,0.721
					c-0.028-0.19-0.082-0.356-0.152-0.445C11.007,6.224,10.099,6.078,9.357,5.9C8.293,5.644,7.084,5.361,6.224,4.587
					C6.232,4.722,6.202,4.875,6.209,5.01c-0.407-0.372-0.95-0.601-1.446-0.775C5.022,4.63,5.416,4.947,5.636,5.37
					c-0.205,0.02-0.364-0.087-0.517-0.208C5.106,5.504,5.429,5.64,5.542,5.92C5.657,6.206,5.671,6.659,5.685,6.97
					c0.031,0.717-0.02,1.521,0.188,2.213c0.202,0.671,0.585,1.254,1.185,1.626c0.17,0.105,0.348,0.157,0.526,0.179
					C7.191,11.06,6.56,11.205,6.56,11.205h1.153l0.123-0.203c0.005,0,0.01,0,0.015,0c-0.044,0.067-0.087,0.135-0.13,0.203H7.713
					L7.65,11.31l0.009-0.004c-0.317,0.514-0.606,1.059-0.865,1.631c-0.949,0.379-1.786,0.943-2.453,1.641l0.019-0.04l-1.548-0.131
					l0.898,0.944c-0.025,0.036-0.05,0.073-0.074,0.11l-2.075-0.719L3.2,16.241c-0.046,0.1-0.089,0.2-0.13,0.303l-1.484-0.149
					l1.243,0.91c-0.102,0.423-0.156,0.862-0.156,1.312c0,1.856,0.909,3.521,2.35,4.661H4.218l1.537,0.463
					c0,0,0.001,0.001,0.002,0.001L5.105,24.08l1.186,0.021c0.107,0.073,0.214,0.146,0.321,0.219l-0.364,0.517l0.666-0.314
					c0.048,0.032,0.096,0.065,0.144,0.097c0.087,0.041,0.174,0.083,0.263,0.122c0.619,0.276,1.255,0.516,1.902,0.721l-0.916,1.529
					c0,0,1.157-0.747,1.916-1.24c0.154,0.04,0.309,0.079,0.464,0.116c-0.226,0.707-0.585,1.858-0.585,1.858l2.829-1.45
					c0.149,0.018,0.299,0.032,0.449,0.044c-0.344,0.497-0.888,1.273-1.041,1.433c0.346-0.217,2.877-1.533,3.518-1.866
					c0.064-0.023,0.13-0.04,0.197-0.05c0.423,0.226,3.46,1.845,3.46,1.796c0-0.044-1.439-1.252-1.915-1.651
					c0.054-0.007,0.107-0.015,0.161-0.024l2.476,0.819c0,0-0.387-0.734-0.608-1.109c0.065-0.011,0.131-0.022,0.196-0.033
					c0.858,0.438,3.037,1.517,3.037,1.517l-1.552-1.822c0.777-0.181,1.55-0.376,2.311-0.617c0.212-0.067,0.424-0.136,0.635-0.207
					l0.269,0.231l-0.065-0.301c0.008-0.003,0.016-0.005,0.024-0.008c0.087-0.03,0.174-0.06,0.26-0.091
					c0.336,0.134,0.804,0.321,0.786,0.312c-0.017-0.009-0.316-0.236-0.532-0.402c0.025-0.009,0.049-0.017,0.074-0.026
					c0.031-0.011,0.063-0.021,0.095-0.032c0.647,0.187,1.865,0.538,1.895,0.548c0.037,0.012-1.093-0.698-1.329-0.83
					c1.977-1.097,3.294-3.054,3.294-5.288c0-0.287-0.022-0.57-0.064-0.847L28.964,17.773z M17.243,6.421l-0.006-0.016l0.184,0.054
					C17.362,6.446,17.303,6.433,17.243,6.421z M23.535,10.992l-0.005,0.054c-0.011-0.017-0.021-0.034-0.032-0.05
					C23.51,10.995,23.522,10.993,23.535,10.992z"/>
				<path fill="#FFFFFF" d="M12.3,27.783c0.005,0.001,0.019-0.01,0.039-0.03C12.31,27.771,12.295,27.782,12.3,27.783z"/>
				<polygon fill="#FFFFFF" points="7.36,11.79 7.65,11.31 6.995,11.624 				"/>
			</g>
		</g>
		<text transform="matrix(1 0 0 1 4.4895 20.9833)" display="inline"><tspan x="0" y="0" fill="#F29D17" font-family="'Comfortaa'" font-size="9.0307">500</tspan><tspan x="15.169" y="0" fill="#F29D17" font-family="'Comfortaa'" font-size="6.0205">Go</tspan></text>
	</g>
	<g>
		<path fill="#EA663A" d="M32.005,26.995c0,2.761-2.239,5-5,5h-22c-2.761,0-5-2.239-5-5v-22c0-2.761,2.239-5,5-5h22
			c2.761,0,5,2.239,5,5V26.995z"/>
		<g>
			<path fill="#FFFFFF" d="M28.995,17.761l1.459-1.103l-1.687,0.161c-0.024-0.072-0.05-0.144-0.077-0.216l0.842-0.658l-1.113,0.052
				c-0.05-0.096-0.102-0.191-0.157-0.285l0.886-1.53c0,0-1.218,0.577-1.463,0.71c-0.798-0.959-1.898-1.706-3.173-2.128
				c-0.152-0.328-0.315-0.646-0.487-0.954l0.386-0.095l-0.656-0.368c-0.047-0.077-0.094-0.153-0.143-0.229l1.268,0.175
				c0,0-0.645-0.255-1.033-0.379c0.093-0.029,0.185-0.07,0.275-0.125c0.601-0.372,0.984-0.956,1.186-1.628
				c0.208-0.693,0.157-1.498,0.188-2.216c0.014-0.312,0.027-0.766,0.143-1.052c0.113-0.28,0.437-0.416,0.424-0.758
				c-0.153,0.121-0.312,0.228-0.518,0.208c0.221-0.423,0.615-0.741,0.875-1.136c-0.497,0.174-1.041,0.404-1.448,0.776
				c0.007-0.135-0.023-0.289-0.015-0.424c-0.86,0.775-2.071,1.059-3.136,1.314c-0.744,0.179-1.653,0.325-2.169,0.983
				c-0.058,0.074-0.105,0.2-0.135,0.349c-0.287-0.151-0.581-0.286-0.88-0.403c0.351-0.309,1.038-0.911,1.06-0.927
				c0.023-0.017-1.226,0.306-1.788,0.444l0.085-0.953l-0.76,0.959l-0.514-1.363c0,0-0.448,0.906-0.638,1.287
				c-0.057-0.003-0.114-0.005-0.172-0.007l-0.777-0.684l0.197,0.69c-0.112,0.005-0.223,0.013-0.333,0.022L11.91,5.867l1.474,0.713
				c-0.587,0.177-1.156,0.419-1.701,0.722c-0.028-0.19-0.082-0.356-0.152-0.446c-0.516-0.658-1.425-0.805-2.169-0.983
				C8.297,5.617,7.086,5.333,6.226,4.558c0.008,0.135-0.022,0.289-0.015,0.424C5.803,4.61,5.26,4.381,4.762,4.206
				c0.26,0.395,0.654,0.713,0.874,1.136c-0.205,0.02-0.365-0.087-0.518-0.208C5.106,5.476,5.43,5.613,5.543,5.893
				c0.116,0.286,0.129,0.74,0.143,1.052c0.031,0.718-0.02,1.523,0.188,2.216c0.202,0.672,0.585,1.256,1.186,1.628
				c0.17,0.106,0.348,0.157,0.527,0.179c-0.393,0.073-1.024,0.217-1.024,0.217h1.154l0.123-0.204c0.005,0,0.01,0,0.015,0
				c-0.044,0.067-0.087,0.135-0.13,0.203H7.717L7.654,11.29l0.009-0.004c-0.317,0.515-0.607,1.06-0.866,1.633
				c-0.951,0.38-1.788,0.944-2.456,1.643l0.019-0.04l-1.55-0.131l0.899,0.945c-0.025,0.036-0.05,0.073-0.074,0.11l-2.077-0.72
				l1.641,1.501c-0.046,0.1-0.089,0.201-0.13,0.303l-1.486-0.149l1.244,0.911c-0.102,0.424-0.156,0.863-0.156,1.314
				c0,1.858,0.91,3.525,2.353,4.666H4.217l1.539,0.464l0.002,0.001l-0.653,0.337l1.188,0.021c0.107,0.073,0.214,0.147,0.322,0.22
				L6.25,24.834l0.667-0.315c0.048,0.032,0.096,0.065,0.144,0.097c0.088,0.041,0.175,0.083,0.263,0.122
				c0.62,0.276,1.257,0.516,1.905,0.722l-0.917,1.531c0,0,1.159-0.748,1.918-1.242c0.155,0.04,0.309,0.079,0.465,0.116
				c-0.227,0.708-0.586,1.86-0.586,1.86l2.832-1.452c0.15,0.018,0.299,0.032,0.449,0.044c-0.344,0.498-0.889,1.274-1.042,1.435
				c0.346-0.217,2.88-1.535,3.522-1.868c0.065-0.023,0.13-0.04,0.197-0.05c0.423,0.226,3.464,1.847,3.464,1.798
				c0-0.044-1.441-1.254-1.918-1.653c0.054-0.007,0.107-0.015,0.161-0.024l2.479,0.82c0,0-0.388-0.735-0.608-1.111
				c0.065-0.011,0.131-0.022,0.196-0.034c0.859,0.439,3.041,1.518,3.041,1.518l-1.554-1.824c0.778-0.182,1.552-0.376,2.314-0.617
				c0.213-0.067,0.425-0.136,0.636-0.208l0.269,0.231l-0.065-0.301c0.008-0.003,0.016-0.005,0.024-0.008
				c0.087-0.03,0.174-0.061,0.261-0.091c0.337,0.134,0.805,0.321,0.787,0.312c-0.017-0.009-0.316-0.237-0.533-0.403
				c0.025-0.009,0.049-0.018,0.075-0.026c0.031-0.011,0.063-0.021,0.095-0.032c0.647,0.187,1.868,0.539,1.897,0.549
				c0.037,0.012-1.094-0.699-1.33-0.831c1.979-1.098,3.298-3.058,3.298-5.294c0-0.287-0.022-0.57-0.065-0.848L28.995,17.761z
				 M17.259,6.395l-0.006-0.016l0.184,0.054C17.378,6.42,17.319,6.407,17.259,6.395z M23.558,10.972l-0.005,0.054
				c-0.011-0.017-0.021-0.034-0.032-0.05C23.533,10.974,23.546,10.973,23.558,10.972z"/>
			<path fill="#FFFFFF" d="M12.31,27.784c0.005,0.001,0.019-0.01,0.039-0.031C12.319,27.772,12.305,27.783,12.31,27.784z"/>
			<polygon fill="#FFFFFF" points="7.363,11.771 7.654,11.29 6.998,11.604 			"/>
		</g>
	</g>
	<g display="none">
		<path display="inline" fill="#F29D17" d="M31.937,27c0,2.755-2.233,4.988-4.988,4.988H5c-2.755,0-4.988-2.233-4.988-4.988V5.051
			c0-2.755,2.233-4.988,4.988-4.988h21.949c2.755,0,4.988,2.233,4.988,4.988V27z"/>
		<g display="inline">
			<path fill="#FFFFFF" d="M28.933,17.788l1.455-1.1l-1.683,0.161c-0.024-0.072-0.049-0.144-0.076-0.215l0.84-0.656l-1.11,0.052
				c-0.05-0.096-0.102-0.191-0.157-0.284l0.884-1.526c0,0-1.215,0.576-1.459,0.709c-0.796-0.957-1.893-1.702-3.166-2.123
				c-0.152-0.327-0.314-0.644-0.486-0.952l0.385-0.095l-0.654-0.367c-0.047-0.077-0.094-0.153-0.142-0.228l1.265,0.174
				c0,0-0.643-0.254-1.03-0.379c0.093-0.029,0.185-0.069,0.274-0.125c0.599-0.371,0.982-0.953,1.183-1.624
				c0.208-0.691,0.156-1.494,0.188-2.21c0.014-0.311,0.027-0.764,0.142-1.05c0.113-0.279,0.436-0.415,0.423-0.757
				c-0.152,0.12-0.311,0.227-0.517,0.207c0.22-0.422,0.613-0.739,0.872-1.133c-0.496,0.174-1.038,0.403-1.445,0.775
				c0.007-0.135-0.023-0.288-0.015-0.423c-0.858,0.773-2.066,1.056-3.129,1.311c-0.742,0.178-1.649,0.324-2.164,0.981
				c-0.058,0.074-0.104,0.199-0.135,0.348c-0.287-0.151-0.58-0.285-0.878-0.402c0.351-0.308,1.035-0.909,1.057-0.925
				c0.023-0.017-1.223,0.305-1.784,0.443l0.084-0.951l-0.758,0.956l-0.512-1.36c0,0-0.447,0.904-0.637,1.284
				c-0.057-0.003-0.114-0.005-0.171-0.007l-0.776-0.683l0.197,0.688c-0.111,0.005-0.222,0.013-0.333,0.022l-3.078-0.402l1.47,0.711
				c-0.586,0.176-1.153,0.418-1.697,0.72c-0.028-0.19-0.082-0.355-0.152-0.445c-0.515-0.657-1.422-0.803-2.164-0.981
				c-1.062-0.255-2.27-0.538-3.129-1.311c0.008,0.135-0.022,0.288-0.015,0.423c-0.407-0.372-0.949-0.6-1.445-0.775
				C5.017,4.659,5.41,4.976,5.63,5.398C5.425,5.418,5.266,5.311,5.113,5.19C5.1,5.532,5.424,5.668,5.536,5.947
				c0.115,0.286,0.129,0.739,0.143,1.05c0.031,0.716-0.02,1.519,0.188,2.21c0.201,0.671,0.584,1.253,1.183,1.624
				c0.17,0.105,0.347,0.157,0.525,0.179c-0.392,0.073-1.022,0.217-1.022,0.217h1.152l0.123-0.203c0.005,0,0.01,0,0.015,0
				c-0.044,0.067-0.087,0.135-0.13,0.203H7.705l-0.063,0.105l0.009-0.004c-0.317,0.514-0.606,1.058-0.864,1.63
				c-0.948,0.379-1.784,0.942-2.451,1.639l0.019-0.04l-1.547-0.131l0.897,0.943c-0.025,0.036-0.05,0.073-0.074,0.11L1.56,14.76
				l1.637,1.497c-0.046,0.1-0.089,0.2-0.13,0.302l-1.482-0.148l1.241,0.909c-0.102,0.423-0.155,0.861-0.155,1.311
				c0,1.854,0.908,3.517,2.347,4.656H4.214l1.535,0.463l0.002,0.001L5.1,24.088l1.185,0.021c0.107,0.073,0.214,0.146,0.321,0.219
				l-0.364,0.517l0.665-0.314c0.048,0.032,0.096,0.065,0.144,0.097c0.087,0.041,0.174,0.083,0.262,0.122
				c0.618,0.276,1.254,0.515,1.9,0.721l-0.915,1.527c0,0,1.156-0.747,1.914-1.239c0.154,0.04,0.309,0.079,0.464,0.116
				c-0.226,0.706-0.584,1.856-0.584,1.856l2.826-1.449c0.149,0.018,0.299,0.032,0.448,0.044c-0.344,0.497-0.887,1.271-1.039,1.431
				c0.345-0.217,2.874-1.531,3.514-1.864c0.064-0.023,0.13-0.04,0.197-0.05c0.422,0.225,3.456,1.843,3.456,1.794
				c0-0.044-1.438-1.251-1.913-1.649c0.053-0.007,0.107-0.015,0.16-0.024l2.474,0.818c0,0-0.387-0.733-0.607-1.108
				c0.065-0.011,0.131-0.022,0.196-0.033c0.857,0.438,3.034,1.515,3.034,1.515l-1.55-1.82c0.776-0.181,1.548-0.376,2.309-0.616
				c0.212-0.067,0.424-0.136,0.635-0.207l0.269,0.23l-0.065-0.3c0.008-0.003,0.016-0.005,0.024-0.008
				c0.087-0.03,0.173-0.06,0.26-0.091c0.336,0.134,0.803,0.32,0.786,0.312c-0.017-0.009-0.315-0.236-0.532-0.402
				c0.025-0.009,0.049-0.017,0.074-0.026c0.031-0.011,0.063-0.021,0.095-0.032c0.646,0.186,1.863,0.538,1.893,0.547
				c0.037,0.012-1.091-0.697-1.327-0.829c1.975-1.096,3.29-3.051,3.29-5.282c0-0.287-0.022-0.569-0.064-0.846L28.933,17.788z
				 M17.225,6.448l-0.006-0.016l0.184,0.054C17.344,6.473,17.285,6.46,17.225,6.448z M23.51,11.014l-0.005,0.054
				c-0.011-0.017-0.021-0.034-0.032-0.05C23.485,11.017,23.497,11.015,23.51,11.014z"/>
			<path fill="#FFFFFF" d="M12.287,27.787c0.005,0.001,0.019-0.01,0.039-0.03C12.297,27.775,12.282,27.786,12.287,27.787z"/>
			<polygon fill="#FFFFFF" points="7.352,11.812 7.642,11.331 6.988,11.645 			"/>
		</g>
		<text transform="matrix(1 0 0 1 11.4519 20.9942)" display="inline"><tspan x="0" y="0" fill="#F29D17" font-family="'Comfortaa'" font-size="9.0212">1</tspan><tspan x="2.467" y="0" fill="#F29D17" font-family="'Comfortaa'" font-size="6.0141">TB</tspan></text>
	</g>
	<g display="none">
		<linearGradient id="SVGID_1_" gradientUnits="userSpaceOnUse" x1="1.4748" y1="30.5252" x2="30.5252" y2="1.4748">
			<stop  offset="0" style="stop-color:#FFFFFF;stop-opacity:0"/>
			<stop  offset="1" style="stop-color:#FFFFFF;stop-opacity:0.4"/>
		</linearGradient>
		<path display="inline" fill="url(#SVGID_1_)" d="M31.989,26.992c0,2.759-2.237,4.996-4.996,4.996H5.008
			c-2.759,0-4.996-2.237-4.996-4.996V5.008c0-2.759,2.237-4.996,4.996-4.996h21.984c2.76,0,4.996,2.237,4.996,4.996V26.992z"/>
	</g>
	<g display="none">
	</g>
</g>
<g id="Calque_4" display="none">
</g>
</svg>
